<svg id="Capa_1" enable-background="new 0 0 512 512" height="512" viewBox="0 0 512 512" width="512" xmlns="http://www.w3.org/2000/svg"><g><path d="m357.19 171.633-16.81-16.81c-5.415-5.416-4.926-14.335 1.049-19.126l52.823-42.351 24.415 24.415-42.351 52.823c-4.791 5.976-13.711 6.465-19.126 1.049z" fill="#dd636e"/><path d="m344.437 158.881 12.753 12.753c5.416 5.415 14.335 4.926 19.126-1.049l42.351-52.823-12.753-12.753-42.351 52.823c-4.791 5.975-13.711 6.464-19.126 1.049z" fill="#da4a54"/><path d="m132.058 504.502-124.543-124.543 135.126-135.126c34.391-34.392 90.151-34.392 124.543 0 34.392 34.391 34.392 90.151 0 124.543z" fill="#ffc89f"/><path d="m254.431 356.623-135.126 135.126 12.753 12.753 135.126-135.126c34.392-34.392 34.392-90.151 0-124.543-2.153-2.153-4.389-4.171-6.699-6.054 28.203 34.59 26.185 85.606-6.054 117.844z" fill="#f7b081"/><path d="m432.104 1.961h34.528v121.367h-34.528z" fill="#8c808a" transform="matrix(.707 .707 -.707 .707 175.913 -299.403)"/><path d="m394.516 59.458h121.367v18.035h-121.367z" fill="#7b7179" transform="matrix(.707 -.707 .707 .707 84.905 341.931)"/><path d="m161.08 350.937c-22.172-22.172-22.172-58.119 0-80.29l84.727-84.727c22.171-22.171 58.118-22.171 80.29 0 22.172 22.171 22.172 58.118 0 80.29l-84.727 84.727c-22.171 22.171-58.118 22.171-80.29 0z" fill="#dd636e"/><path d="m313.345 253.457-84.727 84.727c-20.001 20.001-51.208 21.951-73.404 5.867 1.746 2.409 3.696 4.715 5.867 6.886 22.171 22.171 58.118 22.171 80.29 0l84.727-84.727c22.172-22.171 22.172-58.119 0-80.29-2.171-2.171-4.477-4.121-6.886-5.867 16.084 22.196 14.133 53.403-5.867 73.404z" fill="#da4a54"/><g><path d="m509.799 26.629-24.415-24.415c-2.935-2.934-7.693-2.934-10.628 0l-30.03 30.03c-2.934 2.934-2.934 7.693 0 10.627 2.935 2.934 7.693 2.934 10.628 0l24.716-24.717 13.788 13.788-75.192 75.192-13.788-13.788 29.222-29.22c2.935-2.934 2.935-7.693 0-10.627s-7.693-2.934-10.628 0l-34.244 34.244-52.499 42.091c-9.327 7.476-10.115 21.848-1.663 30.302l16.811 16.811c8.454 8.453 22.826 7.661 30.301-1.663l42.092-52.499 85.529-85.53c2.935-2.934 2.935-7.692 0-10.626zm-139.347 139.254c-1.967 2.454-5.722 2.663-7.948.436l-16.81-16.81c-2.226-2.226-2.018-5.981.436-7.949l47.569-38.139 14.893 14.893z"/><path d="m342.714 233.685c-4.01-1.084-8.132 1.286-9.216 5.293-2.231 8.252-6.627 15.831-12.714 21.918l-84.728 84.727c-19.206 19.206-50.456 19.206-69.661 0-19.206-19.206-19.206-50.457 0-69.663l84.727-84.727c19.206-19.205 50.457-19.206 69.662.001 6.011 6.011 10.38 13.488 12.634 21.622 1.094 3.945 5.303 6.329 9.249 5.235s6.329-5.302 5.235-9.249c-2.946-10.63-8.649-20.394-16.49-28.236-25.067-25.066-65.851-25.066-90.918 0l-31.04 31.04c-26.906-1.278-53.018 8.765-72.126 27.873l-54.394 54.394c-2.736 2.736-2.917 7.255-.399 10.196 2.81 3.282 7.97 3.487 11.027.431l54.394-54.394c12.521-12.521 28.609-20.42 45.81-22.813l-37.999 37.999c-25.066 25.066-25.066 65.851 0 90.917 12.533 12.533 28.996 18.799 45.459 18.799s32.926-6.266 45.459-18.799l38-38c-2.392 17.199-10.294 33.291-22.814 45.812l-129.813 129.814-113.916-113.915 54.164-54.164c2.935-2.934 2.935-7.693 0-10.627s-7.693-2.934-10.628 0l-59.477 59.477c-2.934 2.934-2.934 7.693 0 10.627l124.543 124.543c2.896 2.895 7.732 2.895 10.628 0l135.126-135.126c19.108-19.109 29.15-45.224 27.873-72.126l31.041-31.041c7.94-7.941 13.679-17.839 16.595-28.622 1.083-4.006-1.287-8.132-5.293-9.216z"/></g></g></svg>